<?xml version="1.0" standalone="no"?>
<!DOCTYPE svg PUBLIC "-//W3C//DTD SVG 20010904//EN"
 "http://www.w3.org/TR/2001/REC-SVG-20010904/DTD/svg10.dtd">
<svg version="1.0" xmlns="http://www.w3.org/2000/svg"
 width="1280.000000pt" height="1280.000000pt" viewBox="0 0 1280.000000 1280.000000"
 preserveAspectRatio="xMidYMid meet">
<metadata>
Created by potrace 1.15, written by Peter Selinger 2001-2017
</metadata>
<g transform="translate(0.000000,1280.000000) scale(0.100000,-0.100000)"
fill="#000000" stroke="none">
<path d="M7345 10608 c-647 -73 -1163 -414 -1463 -967 l-40 -74 -12 44 c-22
81 -72 162 -150 239 -168 166 -431 273 -813 331 -173 27 -581 32 -762 11 -708
-85 -1207 -336 -1389 -700 -62 -122 -83 -305 -52 -450 7 -34 10 -61 7 -60 -3
2 -44 23 -90 46 -189 98 -363 136 -611 136 -150 -1 -193 -4 -301 -27 -432 -91
-801 -324 -1040 -657 -224 -313 -282 -695 -157 -1048 53 -152 145 -314 251
-444 26 -32 47 -60 47 -62 0 -3 -33 -21 -72 -41 -228 -116 -423 -306 -535
-521 -231 -444 -156 -987 184 -1345 222 -233 509 -364 879 -400 l121 -12 -14
-51 c-8 -28 -16 -105 -20 -171 -4 -97 -1 -138 15 -215 78 -379 386 -688 823
-828 451 -145 1006 -118 1631 79 70 22 135 42 143 45 11 5 15 -1 15 -21 0 -79
67 -238 156 -370 144 -216 396 -435 637 -556 174 -88 420 -149 598 -149 165 0
371 48 533 124 298 139 597 415 844 779 l66 97 21 -52 c114 -279 388 -544 749
-725 329 -165 650 -244 991 -244 303 0 549 66 766 206 271 175 472 486 550
850 7 33 13 61 14 63 1 1 36 -14 78 -33 276 -128 762 -153 1142 -61 866 212
1218 861 939 1734 -18 59 -34 111 -34 115 0 4 17 15 37 23 68 29 144 84 235
172 316 304 538 805 538 1212 0 472 -272 808 -787 974 -120 38 -317 81 -425
92 -38 4 -68 8 -68 10 0 1 18 33 39 71 132 227 199 520 172 748 -62 534 -493
903 -1151 984 -122 16 -395 13 -544 -4 -227 -27 -526 -97 -731 -173 l-81 -30
4 132 c5 193 -22 302 -115 463 -218 375 -719 649 -1305 712 -114 13 -349 12
-463 -1z"/>
</g>
</svg>
